<?xml version="1.0" standalone="no"?>
<!DOCTYPE svg PUBLIC "-//W3C//DTD SVG 20010904//EN"
 "http://www.w3.org/TR/2001/REC-SVG-20010904/DTD/svg10.dtd">
<svg version="1.0" xmlns="http://www.w3.org/2000/svg"
 width="352.000000pt" height="352.000000pt" viewBox="0 0 352.000000 352.000000"
 preserveAspectRatio="xMidYMid meet">
<metadata>
Created by potrace 1.11, written by Peter Selinger 2001-2013
</metadata>
<g transform="translate(0.000000,352.000000) scale(0.100000,-0.100000)"
fill="#000000" stroke="none">
<path d="M1451 3495 c-196 -92 -325 -408 -334 -819 -1 -47 -3 -86 -4 -86 -2 0
-35 11 -75 24 -105 35 -222 49 -357 43 -222 -9 -338 -79 -358 -215 -4 -24 -19
-51 -43 -77 -57 -60 -73 -100 -73 -175 1 -123 78 -271 236 -450 131 -151 234
-232 381 -301 86 -40 194 -65 407 -93 64 -9 143 -25 175 -36 32 -11 71 -20 87
-20 24 0 27 3 27 34 0 50 -39 92 -106 113 -35 11 -70 31 -98 59 -61 58 -129
88 -287 128 -208 53 -322 117 -454 258 -48 50 -70 69 -57 48 84 -138 214 -270
313 -319 38 -19 119 -43 202 -61 127 -28 253 -67 245 -76 -9 -8 -311 47 -386
71 -189 60 -407 270 -494 478 -27 63 -48 167 -35 167 3 0 27 -41 53 -90 25
-49 50 -90 55 -90 4 0 -5 26 -20 58 -16 31 -36 81 -45 111 -16 53 -15 55 5 77
44 47 168 82 359 103 191 21 325 -24 448 -148 56 -57 79 -92 137 -207 38 -77
76 -143 83 -147 9 -6 10 -33 6 -106 -13 -193 34 -280 295 -546 183 -186 243
-263 291 -369 68 -153 75 -331 18 -483 -24 -66 -94 -144 -155 -174 -69 -33
-187 -33 -261 0 -110 50 -170 159 -159 293 7 87 33 143 90 195 45 42 120 71
220 88 20 3 37 11 37 18 -1 31 -49 94 -90 117 -40 22 -56 25 -155 25 -128 0
-183 -15 -274 -76 -110 -74 -171 -199 -171 -353 0 -243 118 -387 377 -458 68
-19 104 -22 278 -22 175 0 210 3 280 22 268 73 443 239 506 479 28 108 28 287
0 396 -44 167 -143 308 -329 470 -206 180 -287 284 -313 408 -22 101 4 212 63
265 65 60 189 88 278 64 58 -16 114 -72 130 -130 23 -86 -16 -207 -89 -278
l-42 -40 36 -28 c26 -19 52 -29 88 -32 82 -7 135 13 188 68 60 61 83 127 83
235 0 98 -22 167 -70 224 -20 22 -31 41 -25 41 5 0 61 7 123 15 200 26 321 79
430 186 53 53 77 88 117 171 106 215 106 412 1 490 -17 12 -30 28 -30 35 0 8
-11 36 -25 63 -80 158 -300 169 -580 28 -151 -76 -238 -141 -316 -237 l-36
-44 -23 74 c-71 234 -238 483 -363 539 -42 20 -116 25 -151 11 -11 -4 -35 -2
-55 5 -61 22 -149 17 -210 -11z m470 -131 c84 -61 184 -223 234 -377 30 -92
43 -206 27 -233 -10 -16 -11 -12 -12 26 -1 157 -129 415 -281 569 -48 48 -58
62 -39 56 14 -4 46 -23 71 -41z m-436 -43 c-66 -92 -124 -235 -176 -436 -35
-137 -36 -117 -4 59 36 197 97 342 166 400 47 40 52 31 14 -23z m248 -53 c91
-92 141 -159 210 -284 78 -142 91 -187 84 -298 -6 -109 -33 -190 -118 -356
l-59 -115 -84 -43 c-49 -25 -112 -68 -150 -104 -37 -33 -68 -59 -70 -57 -28
31 -177 423 -197 518 -36 173 98 600 239 761 24 27 50 50 58 50 8 0 48 -33 87
-72z m1274 -80 c21 -14 46 -39 55 -55 l17 -30 -52 10 c-65 12 -195 3 -267 -19
-128 -38 -274 -129 -399 -248 l-74 -71 39 63 c135 221 437 411 606 381 21 -3
55 -18 75 -31z m97 -148 c17 -17 13 -204 -7 -280 -28 -107 -74 -188 -146 -261
-102 -101 -203 -151 -420 -208 -63 -17 -118 -34 -124 -40 -5 -5 -23 -5 -45 1
-21 6 -89 13 -153 17 l-117 6 49 80 c27 44 63 120 81 169 26 72 43 102 90 155
171 192 372 316 598 366 71 16 176 13 194 -5z m96 -332 c-64 -245 -201 -391
-424 -448 -82 -21 -298 -44 -327 -35 -36 12 -19 21 74 39 414 83 602 222 674
500 10 39 19 60 21 48 2 -12 -6 -59 -18 -104z m-1923 -100 c-2 -29 -3 -6 -3
52 0 58 1 81 3 53 2 -29 2 -77 0 -105z m-321 -59 c32 -5 84 -17 115 -26 50
-13 57 -18 67 -50 9 -31 9 -34 -6 -28 -109 46 -132 49 -357 49 -207 0 -225 -1
-302 -25 -68 -21 -80 -23 -73 -10 20 38 71 69 145 87 62 15 331 18 411 3z
m331 -21 c-3 -8 -6 -5 -6 6 -1 11 2 17 5 13 3 -3 4 -12 1 -19z"/>
</g>
</svg>
