<?xml version="1.0" encoding="iso-8859-1"?>
<!-- Generator: Adobe Illustrator 18.1.1, SVG Export Plug-In . SVG Version: 6.00 Build 0)  -->
<svg version="1.1" id="Capa_1" xmlns="http://www.w3.org/2000/svg" xmlns:xlink="http://www.w3.org/1999/xlink" x="0px" y="0px"
	 viewBox="0 0 611.999 611.999" style="enable-background:new 0 0 611.999 611.999;" xml:space="preserve">
<g>
	<g>
		<path d="M338.636,336.849c4.438,4.437,10.358,6.881,16.669,6.881c6.31,0,12.23-2.444,16.669-6.883l8.668-8.668
			c-2.488-1.644-28.524-70.95-28.524-70.95c-0.776-2.158-3.411-6.313-5.033-7.935l-56.416-56.416
			c-1.633-1.633-5.811-4.294-7.981-5.085c0,0-71.997-27.346-73.631-29.818l-7.979,7.977c-4.438,4.438-6.883,10.358-6.883,16.669
			c0,6.312,2.444,12.231,6.882,16.669L338.636,336.849z" fill="#df147b"/>
		<path d="M310.92,172.622l56.418,56.418c4.598,4.598,9.532,12.378,11.733,18.498l21.734,60.476l130.238-130.238
			c9.191-9.19,9.191-24.145,0-33.338L393.486,6.883C389.048,2.445,383.129,0,376.817,0c-6.31,0-12.231,2.445-16.669,6.883
			L229.201,137.829l63.288,23.05C298.581,163.098,306.331,168.037,310.92,172.622z M338.576,120.465
			c4.272-7.401,11.122-11.646,18.793-11.646c0.962,0,1.927,0.066,2.889,0.195c-0.606-4.488,0.307-8.116,1.319-10.561
			c3.67-8.861,13.873-15.051,24.812-15.051c7.534,0,13.929,2.928,18.009,8.242c0.982,1.281,1.955,2.877,2.748,4.834
			c4.805-3.705,9.714-4.335,12.487-4.335c12.194,0,24.324,10.902,25.96,23.331c0.355,2.697,0.555,9.168-4.136,15.294
			c8.949,3.652,13.059,12.235,13.06,20.759c0.002,12.666-8.687,26.337-22.727,26.342c-0.002,0-0.006,0-0.007,0
			c-0.961,0-1.924-0.065-2.886-0.194c0.606,4.485-0.306,8.114-1.318,10.557c-3.67,8.861-13.872,15.051-24.812,15.053
			c-0.002,0-0.005,0-0.006,0c-7.532,0-13.923-2.926-18.002-8.24c-0.983-1.281-1.957-2.878-2.751-4.836
			c-4.805,3.705-9.713,4.336-12.487,4.336h-0.003c-12.192,0.001-24.319-10.899-25.957-23.327c-0.356-2.698-0.555-9.176,4.144-15.305
			c-4.27-1.737-7.691-4.672-9.997-8.665C333.346,139.688,333.694,128.924,338.576,120.465z" fill="#df147b"/>
		<path d="M394.581,161.189c4.766,0,9.247-1.856,12.617-5.228c6.957-6.957,6.957-18.277,0-25.235
			c-3.369-3.371-7.851-5.228-12.617-5.228c-4.767,0-9.248,1.856-12.62,5.228c-6.955,6.958-6.955,18.278,0.001,25.235
			C385.332,159.333,389.814,161.189,394.581,161.189z" fill="#df147b"/>
		<path d="M230.243,338.001c0,19.253,16.329,35.498,26.586,35.498c10.001,0,26.586-17.193,26.586-35.498
			c0-18.307-16.585-35.5-26.586-35.5C246.572,302.501,230.243,318.748,230.243,338.001z" fill="#df147b"/>
		<path d="M319.51,406.474c-10.255,0-26.584,16.247-26.584,35.499c0,19.252,16.329,35.499,26.584,35.499
			c10.001,0,26.586-17.194,26.586-35.499C346.096,423.669,329.511,406.474,319.51,406.474z" fill="#df147b"/>
		<path d="M514.896,427.652h-47.768c-23.581,0-44.406,17.624-53.775,33.997l-0.724,1.265
			c-18.608,32.539-37.85,66.186-108.872,66.186c-71.023,0-90.265-33.648-108.872-66.187l-0.723-1.263
			c-9.369-16.374-30.195-33.998-53.775-33.998h-42.04c-12.729,0-26.258,8.997-26.258,25.669v131.564
			c0,17.612,14.166,27.114,27.496,27.114h411.874c11,0,28.451-8.605,28.451-31.697V452.558
			C539.91,436.382,527.022,427.652,514.896,427.652z" fill="#df147b"/>
	</g>
</g>
<g>
</g>
<g>
</g>
<g>
</g>
<g>
</g>
<g>
</g>
<g>
</g>
<g>
</g>
<g>
</g>
<g>
</g>
<g>
</g>
<g>
</g>
<g>
</g>
<g>
</g>
<g>
</g>
<g>
</g>
</svg>
