<svg xmlns="http://www.w3.org/2000/svg" viewBox="0 0 611.999 611.999"><path d="M544.343 559.729c-3.461-10.776-11.627-19.553-19.694-27.619-4.322-4.322-11.073-8.558-18.814-12.299 8.032-46.936 21.989-141.204 21.989-229.464 0-86.912-14.551-162.803-22.533-197.897 7.971-3.806 14.934-8.139 19.358-12.563 11.995-11.995 36.954-36.957 7.4-66.511C523.173 4.501 514.027 0 504.866 0c-14.845 0-25.948 11.165-35.745 21.014l-1.67 1.676c-5.528 5.528-10.1 14.56-13.538 23.104-34.64-12.147-90.585-27.876-148.055-27.876-57.172 0-113.077 15.68-147.795 27.817-3.435-8.526-7.999-17.531-13.513-23.045l-1.67-1.676C133.084 11.165 121.979 0 107.136 0c-9.161 0-18.307 4.501-27.185 13.378-29.554 29.555-4.594 54.515 7.4 66.511 4.392 4.392 11.291 8.696 19.19 12.481-7.95 35.472-22.65 112.602-22.65 197.977 0 95.597 13.562 184.965 21.652 229.765-7.482 3.666-13.987 7.793-18.194 11.998-8.066 8.066-16.231 16.843-19.694 27.619-4.292 13.359-.155 26.443 12.292 38.892 8.876 8.876 18.023 13.378 27.185 13.378 14.843 0 25.948-11.165 35.745-21.014l1.67-1.677c4.221-4.221 7.88-10.491 10.91-17.022 30.893 7.997 82.712 17.86 150.399 17.86 70.623 0 121.064-9.502 150.881-17.435 2.99 6.378 6.581 12.469 10.71 16.598l1.67 1.677c9.798 9.849 20.901 21.014 35.745 21.014 9.161 0 18.307-4.501 27.185-13.378 12.452-12.45 16.588-25.534 12.296-38.893zM214.487 431.09c-1.649 0-3.312.079-5.084.242l-.153.015c-.443.042-.944.086-1.453.086-2.741 0-4.334-1.207-5.187-2.218-1.43-1.696-1.878-4.004-1.367-7.052l3.372-25.05c.576-4.277 4.408-7.626 8.723-7.626h25.838c4.529 0 8.211 3.66 8.211 8.157s-3.683 8.157-8.211 8.157h-18.941c-.223 0-.62.342-.654.562l-1.358 9.072h.97c6.594 0 12.625 1.527 17.441 4.419 7.706 4.379 12.175 12.346 12.175 21.804 0 16.198-13.156 28.413-30.601 28.413-5.529 0-11.125-1.032-15.76-2.904-1.527-.613-5.856-2.354-5.428-7.857l.038-.494.639-1.946c1.057-3.222 4.01-5.387 7.348-5.387a7.89 7.89 0 0 1 3.261.708c.03.014 4.363 1.897 9.791 1.897 6.143 0 12.755-3.546 12.755-11.332-.089-7.726-5.596-11.666-16.365-11.666zm-29.061-278.188c16.803.662 64.121 16.751 86.607 47.349 18.244 24.831 14.891 49.282 11.932 70.855-.587 4.285-1.163 8.492-1.549 12.589-.141-.534-.279-1.065-.427-1.607-.109-.402-.219-.807-.328-1.217l-.175-.61-.044-.152-.011-.038c.016.029-.171-.374-.099-.224l-.031-.085-.125-.341c-.331-.909-.686-1.826-1.051-2.755-.784-1.813-1.642-3.664-2.652-5.439-1.987-3.58-4.393-7.029-7.071-10.212-2.676-3.189-5.597-6.141-8.59-8.852-6.013-5.413-12.254-9.933-17.828-13.958-2.788-2.021-5.428-3.906-7.801-5.766-2.395-1.843-4.505-3.647-6.347-5.435-1.83-1.783-3.462-3.54-4.702-5.284-.706-.847-1.15-1.733-1.744-2.532l-1.332-2.344-.979-1.989c-.287-.61-.474-1.187-.665-1.626-.379-.891-.583-1.366-.583-1.366l-.524 1.39c-.151.46-.386.998-.545 1.683-.164.694-.33 1.512-.493 2.465-.127.931-.19 1.957-.259 3.111.023 1.126.012 2.402.2 3.72.263 2.691 1.085 5.647 2.314 8.726 1.254 3.063 2.985 6.204 5.075 9.195 2.095 2.994 4.488 5.916 7.062 8.694 5.144 5.573 10.921 10.619 16.287 15.509 5.403 4.869 10.342 9.609 14.408 14.373 1.036 1.185 1.954 2.399 2.9 3.582.432.608.866 1.211 1.314 1.802l.167.223.042.055c.083.174-.09-.205-.066-.152l.022.033.085.135.335.538.682 1.058a183.442 183.442 0 0 0 5.288 7.81 296.325 296.325 0 0 0 5.135 6.851c-19.919-1.861-62.535-18.058-83.306-46.326-17.496-23.809-14.017-48.125-10.947-69.58 1.83-12.83 3.453-24.167.419-33.856zm138.098 187.125l.319-.172c.854-.456 1.712-.936 2.58-1.427 1.686-1.032 3.397-2.14 5.012-3.391 3.265-2.472 6.341-5.337 9.116-8.439 2.781-3.097 5.294-6.406 7.556-9.75 4.512-6.714 8.11-13.53 11.313-19.616 1.608-3.045 3.105-5.923 4.612-8.534 1.488-2.63 2.977-4.975 4.486-7.048 1.51-2.062 3.019-3.925 4.571-5.399.74-.818 1.553-1.382 2.261-2.082l2.134-1.648 1.832-1.248c.564-.371 1.109-.635 1.515-.887l1.271-.769s-.505-.114-1.451-.323c-.478-.086-1.041-.244-1.744-.304a40.84 40.84 0 0 0-2.51-.141c-.937.005-1.963.086-3.116.181-1.113.182-2.376.35-3.654.721-2.626.639-5.437 1.867-8.314 3.519-2.856 1.672-5.723 3.828-8.391 6.317-2.669 2.495-5.225 5.274-7.613 8.214-4.794 5.877-8.978 12.306-13.064 18.307-4.059 6.034-8.058 11.592-12.203 16.285-1.028 1.193-2.099 2.273-3.138 3.376a73.476 73.476 0 0 0-1.6 1.555l-.197.197-.049.049c-.159.107.19-.119.142-.086l-.03.026-.122.103-.486.408-.951.824a184.072 184.072 0 0 0-6.989 6.335 289.21 289.21 0 0 0-6.346 6.343c-.576-6.81-.327-17.817 2.439-31.835 2.715-13.758 9.809-39.613 26.811-58.193 19.948-21.798 44.478-23.122 66.119-24.288 12.994-.702 24.47-1.321 33.396-6.234 2.433 15.353-3.827 65.969-29.679 94.223-20.803 22.732-45.44 24.206-67.177 25.506-4.155.248-8.235.495-12.186.888.445-.188.87-.356 1.321-.55.383-.166.771-.331 1.158-.498l.58-.257.145-.066.036-.018c-.025.021.346-.22.208-.129l.077-.045zm-44.06 55.042c0-4.529 3.683-8.211 8.211-8.211h1.314c4.529 0 8.211 3.683 8.211 8.211v19.581l18.804-23.096c2.216-2.721 6.371-4.697 9.881-4.697h3.613c3.9 0 5.387 2.31 5.845 3.304.457.994 1.251 3.623-1.281 6.59l-21.385 25.065c-.267.313-.316 1.214-.086 1.555l24.188 35.682c1.484 2.19 1.722 4.605.65 6.628-1.072 2.021-3.204 3.181-5.851 3.181h-3.066c-3.649 0-7.771-2.198-9.803-5.228l-19.023-28.365-.802.929c-.835.965-1.685 3.249-1.685 4.526v19.928c0 4.529-3.683 8.211-8.211 8.211h-1.314c-4.529 0-8.211-3.683-8.211-8.211v-65.583zm110.853-8.979c7.977 0 13.853 1.514 16.644 2.417 3.293 1.065 6.076 4.8 4.973 8.66l-.422 1.423c-1.014 3.428-4.081 5.73-7.63 5.732-.925 0-1.839-.16-2.721-.475-.031-.012-4.514-1.552-11.065-1.552-16.008 0-25.566 9.557-25.566 25.565 0 16.076 9.106 25.676 24.36 25.676 3.785 0 6.654-.345 8.595-.792V437.77h-6.788c-4.529 0-8.211-3.561-8.211-7.938s3.683-7.938 8.211-7.938h16.094c4.529 0 8.211 3.683 8.211 8.211v28.409c0 4.061-1.886 6.683-5.606 7.791l-.157.047c-4.834 1.496-12.401 3.278-21.007 3.278-12.803 0-22.755-3.56-30.424-10.88-7.355-7.1-11.563-18.192-11.563-30.45.129-25.256 17.839-42.21 44.072-42.21z" fill="#df147b"/></svg>