<svg xmlns="http://www.w3.org/2000/svg" viewBox="0 0 611.998 611.998"><g fill="#df147b"><path d="M102.346 228.801h297.615c8.39 0 6.655-3.91 5.755-5.974L343.353 67.502c-5.987-13.722-22.57-21.281-36.854-16.8L260.608 65.1c-14.284 4.482-34.711 16.729-45.394 27.216L95.603 222.107c-2.384 2.341-.365 6.694 6.743 6.694z"/><path d="M593.11 168.014h-40.416c-6.138 0-11.584 2.955-15.036 7.503h-2.466c-13.191 0-28.696 8.25-36.068 19.19l-39.86 59.157a22.776 22.776 0 0 0-6.911-1.064H16.941c-6.981 0-12.535 2.756-15.237 7.561s-2.171 10.983 1.454 16.949l92.069 151.441c1.46 2.402 3.368 4.673 5.568 6.763l-6.661 14.439c-.622-.021-1.242-.048-1.87-.048-31.067 0-56.341 25.274-56.341 56.341s25.274 56.341 56.341 56.341 56.341-25.274 56.341-56.341c0-22.33-13.056-41.667-31.937-50.778l4.177-9.051c2.519.596 5.027.927 7.445.927h.268l28.077-2.65 96.737 69.728c10.808 7.791 23.486 11.547 36.101 11.547 18.677 0 37.217-8.237 49.33-23.809l64.417-82.81c7.321-3.842 13.086-10.744 14.951-18.85l54.25-121.497.257-.574.124-.616a23.24 23.24 0 0 0 .451-3.962l44.754-66.421c3.109-4.614 11.619-9.141 17.182-9.141h2.465c3.453 4.548 8.9 7.504 15.038 7.504h40.416c10.416 0 18.891-8.474 18.891-18.891s-8.474-18.888-18.889-18.888zM320.83 488.178c-12.862 16.535-37.149 20.017-54.139 7.77l-75.615-54.504 179.267-16.918-49.513 63.652z"/></g></svg>