<svg xmlns="http://www.w3.org/2000/svg" viewBox="0 0 612 612"><path d="M405.821 520.468c-.577-1.192-1.155-2.382-1.712-3.585-.381-.832-.757-1.668-1.128-2.506-.109-.247-.2-.447-.276-.617-1.72-4.156-31.911-121.539-33.095-128.796L481.466 283.1c2 .103 4 .18 5.995.204 19.518.228 38.504-5.122 53.884-17.237 31.159-24.541 30.887-73.471 10.151-104.43-1.455-2.173-3.032-4.262-4.625-6.337a82.03 82.03 0 0 0 7.703-10.122c12.696-19.705 11.488-43.819 1.917-64.313-13.609-29.134-52.033-47.863-83.285-44.97-17.871 1.654-35.074 8.434-50.247 18.201a59.857 59.857 0 0 0-1.383-1.986c-5.221-7.151-10.546-14.251-16.322-20.967-11.433-13.296-26.135-24.069-43.194-28.716-17.382-4.736-37.219-1.929-54.17 3.198-17.957 5.431-34.26 14.753-48.943 26.277a142.286 142.286 0 0 0-34.58 39.443c-2.038 3.449-3.696 7.098-5.594 10.622-.641 1.188-1.351 2.338-2.074 3.477-.571-.063-1.568-.192-2.293-.284a67.402 67.402 0 0 1-5.013-1.163c-20.171-5.402-40.014-7.426-60.692-4.525-17.486 2.454-34.602 10.487-48.626 21.036-25.109 18.891-41.044 44.626-48.638 75.004-4.85 19.398-6.525 39.992-4.89 59.919 1.148 13.989 3.893 27.212 9.392 40.121 5.626 13.207 15.765 23.846 26.724 32.875 25.077 20.667 56.141 32.059 88.669 32.35 11.232 0 22.251-1.455 32.957-4.134l68.677 51.029c-1.148 10.004-18.55 110.948-21.31 119.444a137.092 137.092 0 0 1-1.756 5.027c-.172.461-.351.92-.529 1.38a53.218 53.218 0 0 1-1.163 2.39c-114.965 8.849-200.75 43.524-200.75 84.955 0 16.988 517.042 12.531 517.042 0 .003-36.196-65.474-67.235-158.679-80.4zm136.894-370.666c-.104-.143-.213-.279-.316-.421-3.378-4.682-.952-3.396.316.421zM406.39 521.659c.104.211.188.399.259.572-.087-.19-.167-.384-.259-.572zm5.947-245.345c.129-.073.247-.139.409-.236-.179.108-.317.195-.448.277.013-.013.027-.026.039-.041zm-47.15 50.348c.233-3.656.315-7.318.359-10.98 13.613-5.919 25.669-14.211 35.69-25.964 2.496-2.929 4.807-6.019 7.218-9.018 1.069-1.332 2.205-2.593 3.376-3.833.743-.159 3.612-1.424 3.957-1.521-.275.076 5.295-1.037 4.237-.992 2.04-.215 4.097-.257 6.146-.293 1.124-.02 7.314.413 6.099.236 5.183.756 10.26 2.217 15.35 3.564l-82.282 74.931c-.477-5.17-.827-10.362-.805-15.552.014-3.532.431-7.055.655-10.578zm-130.947-.978a173.838 173.838 0 0 0 8.82-4.581c4.842-2.694 9.588-5.563 14.406-8.304 5.458-3.108 8.422-4.712 13.789-6.15-1.864.559 2.612-.097 3.293-.093 1.345.277 2.678.597 3.998.98a59.74 59.74 0 0 1 2.325.672 9713.05 9713.05 0 0 1-.86 9.432l-.933 10.179a3534.883 3534.883 0 0 1-2.45 25.604c-.116 1.164-.241 2.328-.36 3.492l-42.028-31.231zm10.751 195.642c.124-.236.313-.545.584-.945-.209.311-.397.628-.584.945z" fill="#df147b"/></svg>