<svg id="Warstwa_1" data-name="Warstwa 1" xmlns="http://www.w3.org/2000/svg" viewBox="0 0 340.16 113.39"><defs><style>.cls-1{fill:#fff;}</style></defs><title>sasanka logo</title><path class="cls-1" d="M60.22,31.88a5,5,0,0,1-3.88-1.81,9,9,0,0,0,3.88-7.42c0-3-1.72-5.78-6.29-5.78-4.74,0-8,2.76-8,7.5,0,13.54,19.4,14.31,19.4,33.55,0,12.16-9,20-22.85,20-6.9,0-19.06-1.47-19.06-13.88,0-8.11,6-12.42,12.68-12.42,3.88,0,6.3,1.29,7,4.4-7,.6-10.09,3.54-10.09,9.49,0,5.78,4.48,8.28,8.54,8.28,6.81,0,9.49-6,9.49-12.33,0-16.21-18.63-19.75-18.63-32.6,0-9.05,10.26-16,20.52-16,4.57,0,14.49.69,14.49,10.35C67.38,28.09,64.71,31.88,60.22,31.88Z"/><path class="cls-1" d="M109.29,34.39l-6.12,29.32a17.25,17.25,0,0,0-.43,3.19c0,1.81.69,2.76,2.67,2.76.95,0,2.24-1.21,3.62-3.19,0-7.16,3.1-11.12,6.55-11.38,3.1-5.6,5.09-13.28,6.55-19.83l12.5-2.59v1.21c0,14.23,5.78,18.54,5.86,28.63l-.09,1.81A67.17,67.17,0,0,0,146,58.7l2.24,2.93c-2.41,1.9-5.86,4.92-9.31,7.85-2.24,4.74-7.16,8-15.18,8s-12.59-1.81-14.14-6.81c-3.11,4-6.21,6.81-8.71,6.81-6,0-9.31-2.59-10.35-6.73C88,74.4,84.11,78,78.77,78c-8.28,0-10.69-5.86-10.69-11,0-14.83,5.35-32.6,22.59-32.6a9.36,9.36,0,0,1,5.78,2.16L97,34.39ZM95.58,40.85a6.44,6.44,0,0,0-4.23-1.55C84.89,39.3,79.71,53,79.71,64.74c0,5.17,2.85,6.12,5,6.12,2,0,3.88-2,5.61-4.4a10.78,10.78,0,0,1,.43-2.76Zm21,25a7.7,7.7,0,0,1-3-.69,7.54,7.54,0,0,0-.17,1.38c0,3.71,4.05,5.86,7.42,5.86,2.93,0,7.16-3.62,7.16-10.26,0-5.35-3.88-9.92-4.05-20.7-1.38,4.23-2.59,9.74-4.48,14.06,2.07.69,2.85,2.24,2.85,4.83A5.54,5.54,0,0,1,116.54,65.86Z"/><path class="cls-1" d="M186.65,34.39l-6.21,29.32a16.18,16.18,0,0,0-.35,2.67c0,1.9.86,3.28,4.31,3.28s7.93-4.83,11.38-7.59h2.93c-4,4-13.71,15.44-20.44,15.44-5.61,0-9.4-2.07-10.52-6.55C165.18,74.48,161.3,78,156,78c-8.28,0-10.69-5.86-10.69-11,0-14.83,5.35-32.6,22.59-32.6a9.36,9.36,0,0,1,5.78,2.16l.52-2.24ZM157,64.74c0,5.17,2.85,6.12,5,6.12,2,0,3.88-1.9,5.52-4.31a20.22,20.22,0,0,1,.52-2.85l4.83-22.85a6.44,6.44,0,0,0-4.23-1.55C162.16,39.3,157,53,157,64.74Z"/><path class="cls-1" d="M225.2,63.71a10.75,10.75,0,0,0-.43,2.76c0,1.9.95,3.19,4.31,3.19s4.74-2.67,8.19-5.43h2.93c-4,4-10.52,13.28-17.25,13.28s-10.69-2.93-10.69-9.4a20.94,20.94,0,0,1,.52-4.4l3.28-15.52a10.57,10.57,0,0,0,.26-2.24c0-3.1-1.64-5.09-4-5.09a9.14,9.14,0,0,0-5.43,1.81L199.58,77.5H187.17l9.14-43.12h12.42l-1,4.66c3.54-2.59,7.5-4.66,11.3-4.66,4.66,0,9.92,5,9.92,10.78a8.42,8.42,0,0,1-.17,2.07Z"/><path class="cls-1" d="M274.87,34.39,257.36,46.2a9.94,9.94,0,0,1,2.24-.26c4.66,0,10,5,10,10.69a9.23,9.23,0,0,1-.26,2.16l-1.21,4.92a10.75,10.75,0,0,0-.43,2.76c0,1.9.95,3.19,4.31,3.19s6.47-4.83,9.92-7.59h2.93c-4,4-12.25,15.44-19,15.44s-10.78-2.93-10.78-9.23a18.05,18.05,0,0,1,.6-4.57l.95-4a10.52,10.52,0,0,0,.26-2.24c0-3.1-1.64-5.09-4-5.09a9.29,9.29,0,0,0-5.52,1.9l-4.91,23.2H230.11l12.5-58.64,12.76-1.72-6.47,30.18c6.47-5.17,16.64-13,16.64-12.94Z"/><path class="cls-1" d="M309.28,63.71a12.06,12.06,0,0,0-.43,2.93c0,1.81.69,3.19,3.1,3.19a6.91,6.91,0,0,0,2.24-.26c-2.42,7.42-6,7.93-9,7.93-5,0-7.67-2.59-8.54-6.55C294.1,74.48,290.22,78,285,78c-8.28,0-10.69-5.86-10.69-11,0-14.83,5.35-32.6,22.59-32.6a9.36,9.36,0,0,1,5.78,2.16l.52-2.24h12.33Zm-7.5-22.85a6.44,6.44,0,0,0-4.23-1.55c-6.47,0-11.64,13.71-11.64,25.44,0,5.17,2.85,6.12,5,6.12,2,0,3.88-2,5.61-4.4a10.75,10.75,0,0,1,.43-2.76Z"/><path class="cls-1" d="M36.93,86a5.24,5.24,0,0,1,1.7,3.35H36.68a3.71,3.71,0,0,0-4-3.09,4.34,4.34,0,0,0-3.46,1.53,7.08,7.08,0,0,0-1.32,4.7,6.91,6.91,0,0,0,1.19,4.21,4.12,4.12,0,0,0,3.55,1.61,3.73,3.73,0,0,0,3.3-1.7,6.54,6.54,0,0,0,.9-2.35h1.95a6.69,6.69,0,0,1-1.71,3.91,6,6,0,0,1-4.69,1.9,6.14,6.14,0,0,1-4.27-1.56q-2.27-2.06-2.27-6.36a8.19,8.19,0,0,1,1.71-5.36,6.2,6.2,0,0,1,5.09-2.27A5.93,5.93,0,0,1,36.93,86Z"/><path class="cls-1" d="M48.76,89.27a4.07,4.07,0,0,1,1.63,1.39,4.83,4.83,0,0,1,.72,1.9,12.53,12.53,0,0,1,.16,2.37H43.44a4.65,4.65,0,0,0,.77,2.63,2.56,2.56,0,0,0,2.22,1,2.86,2.86,0,0,0,2.24-.94,3.2,3.2,0,0,0,.66-1.26h1.78a3.76,3.76,0,0,1-.47,1.32,4.76,4.76,0,0,1-.89,1.19,4.17,4.17,0,0,1-2,1.09,6.14,6.14,0,0,1-1.47.16,4.49,4.49,0,0,1-3.38-1.46,5.7,5.7,0,0,1-1.39-4.09,6.21,6.21,0,0,1,1.4-4.21,4.6,4.6,0,0,1,3.65-1.62A4.85,4.85,0,0,1,48.76,89.27Zm.65,4.22a4.73,4.73,0,0,0-.51-1.88,2.6,2.6,0,0,0-2.46-1.3,2.72,2.72,0,0,0-2.07.9,3.41,3.41,0,0,0-.89,2.29Z"/><path class="cls-1" d="M54.56,89h1.72V90.5a4.82,4.82,0,0,1,1.62-1.36,4.33,4.33,0,0,1,1.9-.41,3.13,3.13,0,0,1,3.09,1.6,5.67,5.67,0,0,1,.44,2.5v6.9H61.49V92.95a3.66,3.66,0,0,0-.29-1.59,1.77,1.77,0,0,0-1.75-1,3.56,3.56,0,0,0-1.05.13,2.7,2.7,0,0,0-1.31.88,2.66,2.66,0,0,0-.59,1.1,7.4,7.4,0,0,0-.14,1.62v5.63H54.56Z"/><path class="cls-1" d="M67.37,86H69.2v3h1.72v1.48H69.2v7a.76.76,0,0,0,.38.75,1.63,1.63,0,0,0,.7.11h.28l.35,0v1.44a4.08,4.08,0,0,1-.65.13,6.27,6.27,0,0,1-.73,0,2,2,0,0,1-1.72-.65,2.88,2.88,0,0,1-.45-1.68V90.45H65.92V89h1.46Z"/><path class="cls-1" d="M73.78,89H75.5v1.86a4.1,4.1,0,0,1,1-1.32,2.68,2.68,0,0,1,1.9-.78h.17l.41,0v1.91l-.3,0h-.3a2.58,2.58,0,0,0-2.1.88,3.07,3.07,0,0,0-.73,2v6.19H73.78Z"/><path class="cls-1" d="M83.4,89v7.14a3.07,3.07,0,0,0,.25,1.35,1.77,1.77,0,0,0,1.75,1,2.48,2.48,0,0,0,2.5-1.69,6.86,6.86,0,0,0,.36-2.48V89h1.81V99.72H88.37l0-1.59a3.62,3.62,0,0,1-.86,1,3.73,3.73,0,0,1-2.46.84A3.16,3.16,0,0,1,82,98.48a4.64,4.64,0,0,1-.44-2.2V89Z"/><path class="cls-1" d="M94,89h1.79V90.5A6.06,6.06,0,0,1,97,89.34a3.51,3.51,0,0,1,2-.61,3.2,3.2,0,0,1,2.07.63,3.3,3.3,0,0,1,.8,1.07,3.91,3.91,0,0,1,1.42-1.28,4,4,0,0,1,1.83-.42,3,3,0,0,1,3,1.57,5.13,5.13,0,0,1,.42,2.27v7.16h-1.88V92.25a1.74,1.74,0,0,0-.54-1.47,2.12,2.12,0,0,0-1.31-.4,2.6,2.6,0,0,0-1.83.71,3.13,3.13,0,0,0-.77,2.38v6.26h-1.84v-7a3.65,3.65,0,0,0-.26-1.6,1.59,1.59,0,0,0-1.54-.75,2.65,2.65,0,0,0-1.86.79A3.88,3.88,0,0,0,95.84,94v5.71H94Z"/><path class="cls-1" d="M131.29,87.08a8.14,8.14,0,0,1,1.47,5,8.76,8.76,0,0,1-1.68,5.49,7.45,7.45,0,0,1-11,.32,8.49,8.49,0,0,1-1.74-5.48,8.72,8.72,0,0,1,1.49-5.12,6.44,6.44,0,0,1,5.64-2.73A6.76,6.76,0,0,1,131.29,87.08Zm-1.76,9.4a8.07,8.07,0,0,0,1.18-4.36,6.22,6.22,0,0,0-1.36-4.19,4.64,4.64,0,0,0-3.72-1.59,4.84,4.84,0,0,0-3.74,1.57,6.63,6.63,0,0,0-1.45,4.64,6.78,6.78,0,0,0,1.24,4.14,4.66,4.66,0,0,0,4,1.68A4.16,4.16,0,0,0,129.53,96.48Z"/><path class="cls-1" d="M141.88,89.4a5,5,0,0,1,1,1V89.07h1.67v9.78a7.24,7.24,0,0,1-.6,3.23q-1.12,2.19-4.23,2.19a5.19,5.19,0,0,1-2.91-.78,3,3,0,0,1-1.32-2.44h1.84a2.05,2.05,0,0,0,.52,1.11,3.28,3.28,0,0,0,4.62-.86,8.29,8.29,0,0,0,.35-3.08,3.53,3.53,0,0,1-1.3,1.22,4.65,4.65,0,0,1-5.06-.84,5.47,5.47,0,0,1-1.31-4.1,6.23,6.23,0,0,1,1.32-4.22,4.06,4.06,0,0,1,3.18-1.52A3.9,3.9,0,0,1,141.88,89.4Zm.22,1.94a2.62,2.62,0,0,0-2.09-1,2.58,2.58,0,0,0-2.6,1.79,7,7,0,0,0-.37,2.5,4.46,4.46,0,0,0,.73,2.77,2.37,2.37,0,0,0,2,.95,2.77,2.77,0,0,0,2.73-1.76,5.69,5.69,0,0,0,.44-2.32A4.5,4.5,0,0,0,142.1,91.34Z"/><path class="cls-1" d="M148.4,89h1.72v1.86a4.1,4.1,0,0,1,1-1.32,2.68,2.68,0,0,1,1.9-.78h.17l.41,0v1.91l-.3,0H153a2.58,2.58,0,0,0-2.1.88,3.07,3.07,0,0,0-.73,2v6.19H148.4Z"/><path class="cls-1" d="M164,90a5.43,5.43,0,0,1,1.43,4.07,7,7,0,0,1-1.26,4.29,4.53,4.53,0,0,1-3.9,1.7,4.39,4.39,0,0,1-3.5-1.5,6,6,0,0,1-1.3-4,6.44,6.44,0,0,1,1.37-4.32,4.58,4.58,0,0,1,3.67-1.6A4.82,4.82,0,0,1,164,90Zm-1.12,7.15a6.82,6.82,0,0,0,.66-3,5.44,5.44,0,0,0-.48-2.45,2.68,2.68,0,0,0-2.6-1.48,2.56,2.56,0,0,0-2.38,1.26,5.9,5.9,0,0,0-.75,3,5.14,5.14,0,0,0,.75,2.86,2.61,2.61,0,0,0,2.36,1.14A2.46,2.46,0,0,0,162.87,97.19Z"/><path class="cls-1" d="M174.56,89.3a4.87,4.87,0,0,1,1.09,1.05V84.92h1.74v14.8h-1.63v-1.5a3.91,3.91,0,0,1-1.49,1.44,4.25,4.25,0,0,1-2,.44,4,4,0,0,1-3.1-1.51,5.92,5.92,0,0,1-1.31-4,7,7,0,0,1,1.2-4.07,3.91,3.91,0,0,1,3.42-1.72A3.8,3.8,0,0,1,174.56,89.3Zm-4,8.06a2.55,2.55,0,0,0,2.34,1.17,2.46,2.46,0,0,0,2.05-1.08,5.12,5.12,0,0,0,.8-3.1,4.6,4.6,0,0,0-.83-3,2.58,2.58,0,0,0-2-1,2.7,2.7,0,0,0-2.2,1,4.81,4.81,0,0,0-.84,3.07A5.36,5.36,0,0,0,170.52,97.36Z"/><path class="cls-1" d="M181.1,89h1.72V90.5a4.83,4.83,0,0,1,1.62-1.36,4.33,4.33,0,0,1,1.9-.41,3.13,3.13,0,0,1,3.09,1.6,5.68,5.68,0,0,1,.44,2.5v6.9H188V92.95a3.66,3.66,0,0,0-.29-1.59,1.77,1.77,0,0,0-1.75-1,3.56,3.56,0,0,0-1.05.13,2.71,2.71,0,0,0-1.31.88,2.67,2.67,0,0,0-.59,1.1,7.44,7.44,0,0,0-.13,1.62v5.63H181.1Z"/><path class="cls-1" d="M193.54,85h1.84v2h-1.84Zm0,4h1.84V99.72h-1.84Z"/><path class="cls-1" d="M206.22,89.54a4.24,4.24,0,0,1,1.37,3h-1.76a3.25,3.25,0,0,0-.73-1.65,2.32,2.32,0,0,0-1.84-.66A2.54,2.54,0,0,0,200.8,92a6.71,6.71,0,0,0-.48,2.7,5.07,5.07,0,0,0,.68,2.72,2.65,2.65,0,0,0,3.93.42,3.76,3.76,0,0,0,.91-1.87h1.76A4.25,4.25,0,0,1,203,100a4.12,4.12,0,0,1-3.36-1.54,5.9,5.9,0,0,1-1.26-3.85,6.49,6.49,0,0,1,1.38-4.41,4.45,4.45,0,0,1,3.5-1.58A4.69,4.69,0,0,1,206.22,89.54Z"/><path class="cls-1" d="M209.61,98.3,216,90.58h-5.91V89h8.35v1.48l-6.35,7.66h6.54v1.62h-9Z"/><path class="cls-1" d="M228.34,89.27A4.07,4.07,0,0,1,230,90.66a4.82,4.82,0,0,1,.72,1.9,12.46,12.46,0,0,1,.16,2.37H223a4.65,4.65,0,0,0,.77,2.63,2.56,2.56,0,0,0,2.22,1,2.85,2.85,0,0,0,2.24-.94,3.2,3.2,0,0,0,.66-1.26h1.78a3.75,3.75,0,0,1-.47,1.32,4.72,4.72,0,0,1-.88,1.19,4.17,4.17,0,0,1-2,1.09,6.14,6.14,0,0,1-1.46.16,4.48,4.48,0,0,1-3.38-1.46,5.71,5.71,0,0,1-1.39-4.09,6.21,6.21,0,0,1,1.4-4.21,4.6,4.6,0,0,1,3.65-1.62A4.85,4.85,0,0,1,228.34,89.27Zm.65,4.22a4.72,4.72,0,0,0-.51-1.88A2.6,2.6,0,0,0,226,90.3a2.72,2.72,0,0,0-2.07.9,3.41,3.41,0,0,0-.89,2.29Z"/><path class="cls-1" d="M240.87,85h1.84v2h-1.84Zm0,4h1.84V99.72h-1.84Z"/><path class="cls-1" d="M255.57,85v9.12a5.32,5.32,0,0,0,.61,2.67,3.2,3.2,0,0,0,3,1.61,3.58,3.58,0,0,0,3.48-1.74,5.48,5.48,0,0,0,.5-2.54V85h2v8.28a9.57,9.57,0,0,1-.74,4.19q-1.35,2.67-5.1,2.67t-5.09-2.67a9.57,9.57,0,0,1-.74-4.19V85Z"/><path class="cls-1" d="M270.1,96.35a2.59,2.59,0,0,0,.46,1.39,2.93,2.93,0,0,0,2.42.87,3.63,3.63,0,0,0,1.8-.44,1.45,1.45,0,0,0,.78-1.35,1.15,1.15,0,0,0-.62-1.05,7.54,7.54,0,0,0-1.57-.51l-1.46-.36a7.18,7.18,0,0,1-2.06-.76,2.27,2.27,0,0,1-1.18-2,3.08,3.08,0,0,1,1.11-2.47,4.49,4.49,0,0,1,3-.94,4.19,4.19,0,0,1,3.55,1.43,3.07,3.07,0,0,1,.66,1.95h-1.71a2.05,2.05,0,0,0-.44-1.11,2.87,2.87,0,0,0-2.21-.71,2.71,2.71,0,0,0-1.59.39,1.21,1.21,0,0,0-.54,1,1.26,1.26,0,0,0,.71,1.12,4.27,4.27,0,0,0,1.21.44l1.22.29a9.51,9.51,0,0,1,2.66.91,2.42,2.42,0,0,1,1.05,2.18,3.31,3.31,0,0,1-1.1,2.48,4.74,4.74,0,0,1-3.36,1A4.54,4.54,0,0,1,269.45,99a4.09,4.09,0,0,1-1.08-2.7Z"/><path class="cls-1" d="M282.18,99.72h-1.81v-6.2l-1.79,1.11V93.27l1.79-1.11V85h1.81V91L284,89.94v1.36l-1.79,1.11Z"/><path class="cls-1" d="M287.71,89v7.14a3.07,3.07,0,0,0,.25,1.35,1.76,1.76,0,0,0,1.75,1,2.48,2.48,0,0,0,2.5-1.69,6.86,6.86,0,0,0,.36-2.48V89h1.81V99.72h-1.71l0-1.59a3.6,3.6,0,0,1-.86,1,3.73,3.73,0,0,1-2.46.84,3.16,3.16,0,0,1-3.08-1.54,4.66,4.66,0,0,1-.44-2.2V89Z"/><path class="cls-1" d="M304.32,89.4a5,5,0,0,1,1,1V89.07H307v9.78a7.23,7.23,0,0,1-.6,3.23q-1.12,2.19-4.23,2.19a5.19,5.19,0,0,1-2.91-.78,3,3,0,0,1-1.32-2.44h1.84a2.06,2.06,0,0,0,.52,1.11,3.28,3.28,0,0,0,4.62-.86,8.31,8.31,0,0,0,.35-3.08,3.53,3.53,0,0,1-1.3,1.22,4.65,4.65,0,0,1-5.06-.84,5.47,5.47,0,0,1-1.31-4.1,6.22,6.22,0,0,1,1.32-4.22,4.06,4.06,0,0,1,3.18-1.52A3.9,3.9,0,0,1,304.32,89.4Zm.22,1.94a2.62,2.62,0,0,0-2.09-1,2.58,2.58,0,0,0-2.6,1.79,7,7,0,0,0-.37,2.5,4.46,4.46,0,0,0,.73,2.77,2.37,2.37,0,0,0,2,.95,2.77,2.77,0,0,0,2.73-1.76,5.7,5.7,0,0,0,.44-2.32A4.5,4.5,0,0,0,304.54,91.34Z"/><path class="cls-1" d="M310.79,85h1.84v2h-1.84Zm0,4h1.84V99.72h-1.84Z"/></svg>