<?xml version="1.0" encoding="iso-8859-1"?>
<!-- Generator: Adobe Illustrator 18.1.1, SVG Export Plug-In . SVG Version: 6.00 Build 0)  -->
<svg version="1.1" id="Capa_1" xmlns="http://www.w3.org/2000/svg" xmlns:xlink="http://www.w3.org/1999/xlink" x="0px" y="0px"
	 viewBox="0 0 611.999 611.999" style="enable-background:new 0 0 611.999 611.999;" xml:space="preserve">
<g>
	<g>
		<path d="M544.343,559.729c-3.461-10.776-11.627-19.553-19.694-27.619c-4.322-4.322-11.073-8.558-18.814-12.299
			c8.032-46.936,21.989-141.204,21.989-229.464c0-86.912-14.551-162.803-22.533-197.897c7.971-3.806,14.934-8.139,19.358-12.563
			c11.995-11.995,36.954-36.957,7.4-66.511C523.173,4.501,514.027,0,504.866,0c-14.845,0-25.948,11.165-35.745,21.014l-1.67,1.676
			c-5.528,5.528-10.1,14.56-13.538,23.104c-34.64-12.147-90.585-27.876-148.055-27.876c-57.172,0-113.077,15.68-147.795,27.817
			c-3.435-8.526-7.999-17.531-13.513-23.045l-1.67-1.676C133.084,11.165,121.979,0,107.136,0c-9.161,0-18.307,4.501-27.185,13.378
			c-29.554,29.555-4.594,54.515,7.4,66.511c4.392,4.392,11.291,8.696,19.19,12.481c-7.95,35.472-22.65,112.602-22.65,197.977
			c0,95.597,13.562,184.965,21.652,229.765c-7.482,3.666-13.987,7.793-18.194,11.998c-8.066,8.066-16.231,16.843-19.694,27.619
			c-4.292,13.359-0.155,26.443,12.292,38.892c8.876,8.876,18.023,13.378,27.185,13.378c14.843,0,25.948-11.165,35.745-21.014
			l1.67-1.677c4.221-4.221,7.88-10.491,10.91-17.022c30.893,7.997,82.712,17.86,150.399,17.86
			c70.623,0,121.064-9.502,150.881-17.435c2.99,6.378,6.581,12.469,10.71,16.598l1.67,1.677
			c9.798,9.849,20.901,21.014,35.745,21.014c9.161,0,18.307-4.501,27.185-13.378C544.499,586.172,548.635,573.088,544.343,559.729z
			 M214.487,431.09c-1.649,0-3.312,0.079-5.084,0.242l-0.153,0.015c-0.443,0.042-0.944,0.086-1.453,0.086
			c-2.741,0-4.334-1.207-5.187-2.218c-1.43-1.696-1.878-4.004-1.367-7.052l3.372-25.05c0.576-4.277,4.408-7.626,8.723-7.626h25.838
			c4.529,0,8.211,3.66,8.211,8.157s-3.683,8.157-8.211,8.157h-18.941c-0.223,0-0.62,0.342-0.654,0.562l-1.358,9.072h0.97
			c6.594,0,12.625,1.527,17.441,4.419c7.706,4.379,12.175,12.346,12.175,21.804c0,16.198-13.156,28.413-30.601,28.413
			c-5.529,0-11.125-1.032-15.76-2.904c-1.527-0.613-5.856-2.354-5.428-7.857l0.038-0.494l0.639-1.946
			c1.057-3.222,4.01-5.387,7.348-5.387c1.121,0,2.218,0.238,3.261,0.708c0.03,0.014,4.363,1.897,9.791,1.897
			c6.143,0,12.755-3.546,12.755-11.332C230.763,435.03,225.256,431.09,214.487,431.09z M185.426,152.902
			c16.803,0.662,64.121,16.751,86.607,47.349c18.244,24.831,14.891,49.282,11.932,70.855c-0.587,4.285-1.163,8.492-1.549,12.589
			c-0.141-0.534-0.279-1.065-0.427-1.607c-0.109-0.402-0.219-0.807-0.328-1.217l-0.175-0.61l-0.044-0.152l-0.011-0.038
			c0.016,0.029-0.171-0.374-0.099-0.224l-0.031-0.085l-0.125-0.341c-0.331-0.909-0.686-1.826-1.051-2.755
			c-0.784-1.813-1.642-3.664-2.652-5.439c-1.987-3.58-4.393-7.029-7.071-10.212c-2.676-3.189-5.597-6.141-8.59-8.852
			c-6.013-5.413-12.254-9.933-17.828-13.958c-2.788-2.021-5.428-3.906-7.801-5.766c-2.395-1.843-4.505-3.647-6.347-5.435
			c-1.83-1.783-3.462-3.54-4.702-5.284c-0.706-0.847-1.15-1.733-1.744-2.532c-0.484-0.853-0.929-1.635-1.332-2.344
			c-0.367-0.745-0.694-1.41-0.979-1.989c-0.287-0.61-0.474-1.187-0.665-1.626c-0.379-0.891-0.583-1.366-0.583-1.366
			s-0.182,0.484-0.524,1.39c-0.151,0.46-0.386,0.998-0.545,1.683c-0.164,0.694-0.33,1.512-0.493,2.465
			c-0.127,0.931-0.19,1.957-0.259,3.111c0.023,1.126,0.012,2.402,0.2,3.72c0.263,2.691,1.085,5.647,2.314,8.726
			c1.254,3.063,2.985,6.204,5.075,9.195c2.095,2.994,4.488,5.916,7.062,8.694c5.144,5.573,10.921,10.619,16.287,15.509
			c5.403,4.869,10.342,9.609,14.408,14.373c1.036,1.185,1.954,2.399,2.9,3.582c0.432,0.608,0.866,1.211,1.314,1.802l0.167,0.223
			l0.042,0.055c0.083,0.174-0.09-0.205-0.066-0.152l0.022,0.033l0.085,0.135l0.335,0.538c0.229,0.356,0.456,0.709,0.682,1.058
			c1.798,2.807,3.58,5.424,5.288,7.81c1.869,2.558,3.583,4.853,5.135,6.851c-19.919-1.861-62.535-18.058-83.306-46.326
			c-17.496-23.809-14.017-48.125-10.947-69.58C186.837,173.928,188.46,162.591,185.426,152.902z M323.524,340.027l0.319-0.172
			c0.854-0.456,1.712-0.936,2.58-1.427c1.686-1.032,3.397-2.14,5.012-3.391c3.265-2.472,6.341-5.337,9.116-8.439
			c2.781-3.097,5.294-6.406,7.556-9.75c4.512-6.714,8.11-13.53,11.313-19.616c1.608-3.045,3.105-5.923,4.612-8.534
			c1.488-2.63,2.977-4.975,4.486-7.048c1.51-2.062,3.019-3.925,4.571-5.399c0.74-0.818,1.553-1.382,2.261-2.082
			c0.776-0.599,1.49-1.151,2.134-1.648c0.686-0.468,1.299-0.884,1.832-1.248c0.564-0.371,1.109-0.635,1.515-0.887
			c0.828-0.501,1.271-0.769,1.271-0.769s-0.505-0.114-1.451-0.323c-0.478-0.086-1.041-0.244-1.744-0.304
			c-0.71-0.066-1.544-0.112-2.51-0.141c-0.937,0.005-1.963,0.086-3.116,0.181c-1.113,0.182-2.376,0.35-3.654,0.721
			c-2.626,0.639-5.437,1.867-8.314,3.519c-2.856,1.672-5.723,3.828-8.391,6.317c-2.669,2.495-5.225,5.274-7.613,8.214
			c-4.794,5.877-8.978,12.306-13.064,18.307c-4.059,6.034-8.058,11.592-12.203,16.285c-1.028,1.193-2.099,2.273-3.138,3.376
			c-0.541,0.513-1.077,1.028-1.6,1.555l-0.197,0.197l-0.049,0.049c-0.159,0.107,0.19-0.119,0.142-0.086l-0.03,0.026l-0.122,0.103
			l-0.486,0.408l-0.951,0.824c-2.525,2.176-4.867,4.307-6.989,6.335c-2.394,2.332-4.523,4.451-6.346,6.343
			c-0.576-6.81-0.327-17.817,2.439-31.835c2.715-13.758,9.809-39.613,26.811-58.193c19.948-21.798,44.478-23.122,66.119-24.288
			c12.994-0.702,24.47-1.321,33.396-6.234c2.433,15.353-3.827,65.969-29.679,94.223c-20.803,22.732-45.44,24.206-67.177,25.506
			c-4.155,0.248-8.235,0.495-12.186,0.888c0.445-0.188,0.87-0.356,1.321-0.55c0.383-0.166,0.771-0.331,1.158-0.498l0.58-0.257
			l0.145-0.066l0.036-0.018c-0.025,0.021,0.346-0.22,0.208-0.129L323.524,340.027z M279.464,395.069
			c0-4.529,3.683-8.211,8.211-8.211h1.314c4.529,0,8.211,3.683,8.211,8.211v19.581l18.804-23.096
			c2.216-2.721,6.371-4.697,9.881-4.697h3.613c3.9,0,5.387,2.31,5.845,3.304c0.457,0.994,1.251,3.623-1.281,6.59l-21.385,25.065
			c-0.267,0.313-0.316,1.214-0.086,1.555l24.188,35.682c1.484,2.19,1.722,4.605,0.65,6.628c-1.072,2.021-3.204,3.181-5.851,3.181
			h-3.066c-3.649,0-7.771-2.198-9.803-5.228l-19.023-28.365l-0.802,0.929c-0.835,0.965-1.685,3.249-1.685,4.526v19.928
			c0,4.529-3.683,8.211-8.211,8.211h-1.314c-4.529,0-8.211-3.683-8.211-8.211V395.069z M390.317,386.09
			c7.977,0,13.853,1.514,16.644,2.417c3.293,1.065,6.076,4.8,4.973,8.66l-0.422,1.423c-1.014,3.428-4.081,5.73-7.63,5.732
			c-0.925,0-1.839-0.16-2.721-0.475c-0.031-0.012-4.514-1.552-11.065-1.552c-16.008,0-25.566,9.557-25.566,25.565
			c0,16.076,9.106,25.676,24.36,25.676c3.785,0,6.654-0.345,8.595-0.792V437.77h-6.788c-4.529,0-8.211-3.561-8.211-7.938
			c0-4.377,3.683-7.938,8.211-7.938h16.094c4.529,0,8.211,3.683,8.211,8.211v28.409c0,4.061-1.886,6.683-5.606,7.791l-0.157,0.047
			c-4.834,1.496-12.401,3.278-21.007,3.278c-12.803,0-22.755-3.56-30.424-10.88c-7.355-7.1-11.563-18.192-11.563-30.45
			C346.374,403.044,364.084,386.09,390.317,386.09z" fill="#df147b"/>
	</g>
</g>
<g>
</g>
<g>
</g>
<g>
</g>
<g>
</g>
<g>
</g>
<g>
</g>
<g>
</g>
<g>
</g>
<g>
</g>
<g>
</g>
<g>
</g>
<g>
</g>
<g>
</g>
<g>
</g>
<g>
</g>
</svg>
