<svg xmlns="http://www.w3.org/2000/svg" viewBox="0 0 611.999 611.999"><g fill="#df147b"><path d="M338.636 336.849c4.438 4.437 10.358 6.881 16.669 6.881 6.31 0 12.23-2.444 16.669-6.883l8.668-8.668c-2.488-1.644-28.524-70.95-28.524-70.95-.776-2.158-3.411-6.313-5.033-7.935l-56.416-56.416c-1.633-1.633-5.811-4.294-7.981-5.085 0 0-71.997-27.346-73.631-29.818l-7.979 7.977c-4.438 4.438-6.883 10.358-6.883 16.669 0 6.312 2.444 12.231 6.882 16.669l137.559 137.559z"/><path d="M310.92 172.622l56.418 56.418c4.598 4.598 9.532 12.378 11.733 18.498l21.734 60.476 130.238-130.238c9.191-9.19 9.191-24.145 0-33.338L393.486 6.883C389.048 2.445 383.129 0 376.817 0c-6.31 0-12.231 2.445-16.669 6.883L229.201 137.829l63.288 23.05c6.092 2.219 13.842 7.158 18.431 11.743zm27.656-52.157c4.272-7.401 11.122-11.646 18.793-11.646.962 0 1.927.066 2.889.195-.606-4.488.307-8.116 1.319-10.561 3.67-8.861 13.873-15.051 24.812-15.051 7.534 0 13.929 2.928 18.009 8.242a20.682 20.682 0 0 1 2.748 4.834c4.805-3.705 9.714-4.335 12.487-4.335 12.194 0 24.324 10.902 25.96 23.331.355 2.697.555 9.168-4.136 15.294 8.949 3.652 13.059 12.235 13.06 20.759.002 12.666-8.687 26.337-22.727 26.342h-.007c-.961 0-1.924-.065-2.886-.194.606 4.485-.306 8.114-1.318 10.557-3.67 8.861-13.872 15.051-24.812 15.053h-.006c-7.532 0-13.923-2.926-18.002-8.24a20.68 20.68 0 0 1-2.751-4.836c-4.805 3.705-9.713 4.336-12.487 4.336h-.003c-12.192.001-24.319-10.899-25.957-23.327-.356-2.698-.555-9.176 4.144-15.305-4.27-1.737-7.691-4.672-9.997-8.665-4.362-7.56-4.014-18.324.868-26.783z"/><path d="M394.581 161.189a17.72 17.72 0 0 0 12.617-5.228c6.957-6.957 6.957-18.277 0-25.235a17.723 17.723 0 0 0-12.617-5.228 17.729 17.729 0 0 0-12.62 5.228c-6.955 6.958-6.955 18.278.001 25.235a17.723 17.723 0 0 0 12.619 5.228zM230.243 338.001c0 19.253 16.329 35.498 26.586 35.498 10.001 0 26.586-17.193 26.586-35.498 0-18.307-16.585-35.5-26.586-35.5-10.257 0-26.586 16.247-26.586 35.5zm89.267 68.473c-10.255 0-26.584 16.247-26.584 35.499 0 19.252 16.329 35.499 26.584 35.499 10.001 0 26.586-17.194 26.586-35.499 0-18.304-16.585-35.499-26.586-35.499z"/><path d="M514.896 427.652h-47.768c-23.581 0-44.406 17.624-53.775 33.997l-.724 1.265c-18.608 32.539-37.85 66.186-108.872 66.186-71.023 0-90.265-33.648-108.872-66.187l-.723-1.263c-9.369-16.374-30.195-33.998-53.775-33.998h-42.04c-12.729 0-26.258 8.997-26.258 25.669v131.564c0 17.612 14.166 27.114 27.496 27.114h411.874c11 0 28.451-8.605 28.451-31.697V452.558c0-16.176-12.888-24.906-25.014-24.906z"/></g></svg>