<svg xmlns="http://www.w3.org/2000/svg" viewBox="0 0 612 612"><path d="M446.2 159.691c-.023.004-.039.001-.063 0-29.74 0-57.082-21.002-77.694-43.23l34.393-6.249c10.196-1.852 18.184-11.422 18.184-21.786v-9.121h5.249c7.909 0 14.344-6.435 14.344-14.344V47.396c0-7.909-6.435-14.344-14.344-14.344h-5.249v-.064c0-10.785-8.775-19.56-19.56-19.56H261.367c-10.785 0-19.56 8.775-19.56 19.56v85.631c0 1.513.189 2.959.512 4.34v83.294h-41.168c-22.692 0-45.152 17.149-51.131 39.043l-18.603 68.126c-4.611 16.893-9.475 44.83-10.835 62.208l-16.046 191.89c-.921 11.759 2.882 22.896 10.708 31.358 7.825 8.462 18.63 13.122 30.425 13.122h263.567c11.795 0 22.599-4.66 30.425-13.122 7.827-8.463 11.629-19.599 10.702-31.426l-16.035-191.753c-1.367-17.45-6.229-45.388-10.84-62.277l-18.601-68.127c-5.979-21.893-28.439-39.042-51.132-39.042h-63.188V130.61l40.664-7.388c25.617 31.571 66.277 69.069 114.909 69.069h.074c9.001-.008 16.295-7.31 16.287-16.313-.009-8.998-7.304-16.287-16.301-16.287zm-66.471 92.474l15.881 58.171H290.567v-78.003h63.188c10.95-.001 23.088 9.267 25.974 19.832zm-137.41 58.171h-83.025l15.883-58.17c2.886-10.566 15.023-19.834 25.973-19.834h41.168v78.003h.001zM467.987 30.942c1.304 0 2.63-.262 3.902-.818l26.105-11.377c4.953-2.157 7.216-7.92 5.058-12.872-2.157-4.951-7.918-7.218-12.872-5.058l-26.105 11.377c-4.953 2.157-7.216 7.92-5.058 12.872a9.782 9.782 0 0 0 8.97 5.876zm30.006 58.499l-26.105-11.377c-4.954-2.162-10.715.106-12.872 5.058-2.158 4.951.106 10.715 5.058 12.872l26.105 11.377a9.725 9.725 0 0 0 3.902.818 9.78 9.78 0 0 0 8.97-5.876c2.158-4.952-.105-10.715-5.058-12.872zm-.175-45.128h-29.837c-5.402 0-9.78 4.377-9.78 9.78s4.378 9.78 9.78 9.78h29.837c5.402 0 9.78-4.377 9.78-9.78s-4.377-9.78-9.78-9.78z" fill="#df147b"/></svg>