<?xml version="1.0" encoding="iso-8859-1"?>
<!-- Generator: Adobe Illustrator 18.1.1, SVG Export Plug-In . SVG Version: 6.00 Build 0)  -->
<svg version="1.1" id="Capa_1" xmlns="http://www.w3.org/2000/svg" xmlns:xlink="http://www.w3.org/1999/xlink" x="0px" y="0px"
	 viewBox="0 0 612 612" style="enable-background:new 0 0 612 612;" xml:space="preserve">
<g>
	<path d="M405.821,520.468c-0.577-1.192-1.155-2.382-1.712-3.585c-0.381-0.832-0.757-1.668-1.128-2.506
		c-0.109-0.247-0.2-0.447-0.276-0.617c-1.72-4.156-31.911-121.539-33.095-128.796l111.856-101.864c2,0.103,4,0.18,5.995,0.204
		c19.518,0.228,38.504-5.122,53.884-17.237c31.159-24.541,30.887-73.471,10.151-104.43c-1.455-2.173-3.032-4.262-4.625-6.337
		c2.802-3.15,5.373-6.505,7.703-10.122c12.696-19.705,11.488-43.819,1.917-64.313c-13.609-29.134-52.033-47.863-83.285-44.97
		c-17.871,1.654-35.074,8.434-50.247,18.201c-0.448-0.668-0.905-1.332-1.383-1.986c-5.221-7.151-10.546-14.251-16.322-20.967
		c-11.433-13.296-26.135-24.069-43.194-28.716c-17.382-4.736-37.219-1.929-54.17,3.198c-17.957,5.431-34.26,14.753-48.943,26.277
		c-13.837,10.86-25.625,24.289-34.58,39.443c-2.038,3.449-3.696,7.098-5.594,10.622c-0.641,1.188-1.351,2.338-2.074,3.477
		c-0.571-0.063-1.568-0.192-2.293-0.284c-1.688-0.316-3.353-0.719-5.013-1.163c-20.171-5.402-40.014-7.426-60.692-4.525
		c-17.486,2.454-34.602,10.487-48.626,21.036c-25.109,18.891-41.044,44.626-48.638,75.004c-4.85,19.398-6.525,39.992-4.89,59.919
		c1.148,13.989,3.893,27.212,9.392,40.121c5.626,13.207,15.765,23.846,26.724,32.875c25.077,20.667,56.141,32.059,88.669,32.35
		c11.232,0,22.251-1.455,32.957-4.134l68.677,51.029c-1.148,10.004-18.55,110.948-21.31,119.444
		c-0.548,1.689-1.143,3.361-1.756,5.027c-0.172,0.461-0.351,0.92-0.529,1.38c-0.368,0.807-0.756,1.604-1.163,2.39
		c-114.965,8.849-200.75,43.524-200.75,84.955c0,16.988,517.042,12.531,517.042,0C564.503,564.672,499.026,533.633,405.821,520.468z
		 M542.715,149.802c-0.104-0.143-0.213-0.279-0.316-0.421C539.021,144.699,541.447,145.985,542.715,149.802z M406.39,521.659
		c0.104,0.211,0.188,0.399,0.259,0.572C406.562,522.041,406.482,521.847,406.39,521.659z M412.337,276.314
		c0.129-0.073,0.247-0.139,0.409-0.236c-0.179,0.108-0.317,0.195-0.448,0.277C412.311,276.342,412.325,276.329,412.337,276.314z
		 M365.187,326.662c0.233-3.656,0.315-7.318,0.359-10.98c13.613-5.919,25.669-14.211,35.69-25.964
		c2.496-2.929,4.807-6.019,7.218-9.018c1.069-1.332,2.205-2.593,3.376-3.833c0.743-0.159,3.612-1.424,3.957-1.521
		c-0.275,0.076,5.295-1.037,4.237-0.992c2.04-0.215,4.097-0.257,6.146-0.293c1.124-0.02,7.314,0.413,6.099,0.236
		c5.183,0.756,10.26,2.217,15.35,3.564l-82.282,74.931c-0.477-5.17-0.827-10.362-0.805-15.552
		C364.546,333.708,364.963,330.185,365.187,326.662z M234.24,325.684c2.977-1.441,5.919-2.966,8.82-4.581
		c4.842-2.694,9.588-5.563,14.406-8.304c5.458-3.108,8.422-4.712,13.789-6.15c-1.864,0.559,2.612-0.097,3.293-0.093
		c1.345,0.277,2.678,0.597,3.998,0.98c0.779,0.207,1.553,0.433,2.325,0.672c-0.285,3.144-0.572,6.289-0.86,9.432
		c-0.311,3.393-0.621,6.786-0.933,10.179c-0.787,8.538-1.601,17.073-2.45,25.604c-0.116,1.164-0.241,2.328-0.36,3.492
		L234.24,325.684z M244.991,521.326c0.124-0.236,0.313-0.545,0.584-0.945C245.366,520.692,245.178,521.009,244.991,521.326z" fill="#df147b"/>
</g>
<g>
</g>
<g>
</g>
<g>
</g>
<g>
</g>
<g>
</g>
<g>
</g>
<g>
</g>
<g>
</g>
<g>
</g>
<g>
</g>
<g>
</g>
<g>
</g>
<g>
</g>
<g>
</g>
<g>
</g>
</svg>
